<?xml version="1.0" standalone="no"?>
<!DOCTYPE svg PUBLIC "-//W3C//DTD SVG 20010904//EN"
 "http://www.w3.org/TR/2001/REC-SVG-20010904/DTD/svg10.dtd">
<svg version="1.0" xmlns="http://www.w3.org/2000/svg"
 width="922.000000pt" height="270.000000pt" viewBox="0 0 922.000000 270.000000"
 preserveAspectRatio="xMidYMid meet">

<g transform="translate(0.000000,270.000000) scale(0.100000,-0.100000)"
fill="#000000" stroke="none">
<path d="M2600 2602 c-36 -6 -60 -31 -60 -64 0 -61 -44 -85 -381 -213 -197
-75 -384 -150 -764 -307 -99 -41 -216 -87 -260 -101 -130 -42 -345 -76 -652
-101 -100 -9 -193 -21 -208 -28 -14 -6 -35 -27 -47 -46 -21 -34 -21 -35 -4
-67 17 -31 17 -37 1 -106 -9 -41 -18 -112 -21 -159 -8 -128 -11 -143 -55 -210
-63 -97 -72 -157 -65 -395 3 -110 10 -215 16 -234 5 -19 36 -61 67 -94 163
-170 153 -162 239 -186 144 -40 416 -73 714 -87 l145 -7 -3 86 c-13 310 157
590 445 736 110 55 202 75 343 75 151 0 239 -21 375 -92 72 -38 109 -66 185
-142 106 -106 150 -173 192 -292 41 -116 54 -238 41 -379 -6 -62 -9 -118 -6
-123 3 -5 42 -6 90 -2 47 3 983 7 2082 7 1098 0 2016 4 2041 7 41 7 45 10 42
32 -2 14 -6 84 -9 155 -4 111 -2 144 16 220 40 167 134 318 262 421 84 67 139
98 237 134 307 112 655 17 875 -239 60 -71 131 -213 157 -315 22 -88 27 -238
10 -326 -6 -29 -8 -55 -6 -57 8 -9 338 29 388 44 67 19 112 66 127 130 18 78
37 709 23 794 -13 90 -45 137 -128 195 -138 94 -528 210 -999 298 -415 78
-744 110 -1350 132 l-180 6 -205 123 c-511 305 -960 537 -1175 607 -224 74
-412 108 -705 128 -222 16 -893 15 -1280 0 l-315 -13 -60 25 c-62 26 -131 38
-175 30z m1354 -214 c4 -18 16 -91 26 -163 11 -71 31 -195 45 -275 13 -80 27
-181 31 -224 l7 -79 -279 7 c-691 17 -1254 40 -1374 57 -90 13 -137 36 -192
92 -66 68 -78 93 -78 170 0 86 18 128 70 166 107 77 384 162 708 215 276 46
488 63 803 65 l227 1 6 -32z m561 6 c150 -18 434 -68 538 -95 192 -49 488
-199 775 -394 l33 -23 -42 -23 c-61 -34 -89 -79 -89 -144 0 -51 -1 -53 -31
-59 -42 -8 -779 -8 -1047 1 l-211 6 -66 196 c-81 242 -160 487 -169 523 -5 20
-2 28 11 32 24 6 152 -2 298 -20z"/>
</g>
</svg>
