<?xml version="1.0" standalone="no"?>
<!DOCTYPE svg PUBLIC "-//W3C//DTD SVG 20010904//EN"
 "http://www.w3.org/TR/2001/REC-SVG-20010904/DTD/svg10.dtd">
<svg version="1.0" xmlns="http://www.w3.org/2000/svg"
 width="512.000000pt" height="512.000000pt" viewBox="0 0 512.000000 512.000000"
 preserveAspectRatio="xMidYMid meet">

<g transform="translate(0.000000,512.000000) scale(0.100000,-0.100000)"
fill="#000000" stroke="none">
<path d="M2365 5113 c-210 -17 -381 -50 -575 -110 -793 -247 -1427 -881 -1673
-1673 -74 -238 -104 -417 -114 -675 -22 -598 158 -1164 526 -1650 97 -129 349
-381 471 -471 243 -180 474 -304 735 -393 130 -44 312 -87 445 -105 63 -9 132
-18 153 -21 21 -3 120 -5 220 -5 737 0 1394 289 1896 835 429 467 662 1071
662 1722 0 100 -3 199 -6 220 -3 21 -12 90 -21 153 -48 354 -191 729 -394
1032 -110 165 -175 244 -319 390 -486 493 -1147 765 -1839 756 -70 -1 -145 -3
-167 -5z m558 -481 c561 -102 1046 -417 1373 -892 85 -124 204 -365 253 -514
86 -261 124 -558 103 -809 -26 -303 -90 -533 -224 -804 -189 -384 -537 -732
-921 -921 -271 -134 -501 -198 -804 -224 -514 -44 -1080 140 -1490 483 -385
322 -636 755 -724 1246 -31 169 -37 456 -14 634 108 851 734 1558 1565 1768
197 49 306 60 550 57 165 -3 242 -8 333 -24z"/>
<path d="M2847 4459 c7 -7 15 -10 18 -7 3 3 -2 9 -12 12 -14 6 -15 5 -6 -5z"/>
<path d="M3470 4246 c0 -2 7 -7 16 -10 8 -3 12 -2 9 4 -6 10 -25 14 -25 6z"/>
<path d="M2428 4090 c-126 -12 -150 -19 -144 -38 10 -36 76 -396 106 -577 17
-104 35 -215 40 -245 5 -30 14 -123 21 -207 l11 -152 -32 -41 c-30 -38 -76
-68 -128 -84 -49 -16 -421 157 -885 411 -114 62 -211 113 -215 113 -12 0 -120
-252 -127 -295 -2 -11 -8 -42 -15 -70 -6 -27 -12 -70 -13 -95 l-2 -45 110 -12
c358 -41 713 -98 933 -151 l152 -36 29 -51 c15 -28 31 -73 34 -103 l6 -53 -98
-117 c-95 -113 -488 -508 -658 -661 -46 -41 -83 -81 -83 -89 0 -8 11 -24 23
-36 13 -11 41 -37 63 -57 22 -19 64 -52 93 -73 30 -20 60 -44 67 -54 8 -9 14
-13 14 -9 0 5 12 -1 26 -12 15 -12 33 -21 40 -21 8 0 14 -4 14 -8 0 -8 57 -32
76 -32 5 0 23 28 39 63 153 328 350 721 418 832 106 174 113 181 170 193 76
15 144 -1 177 -41 30 -38 133 -205 164 -267 12 -25 64 -125 114 -224 51 -98
128 -258 173 -355 89 -193 100 -211 122 -193 8 7 17 9 20 5 4 -3 7 -2 7 4 0 6
15 18 34 27 50 23 187 124 266 195 66 58 83 85 61 93 -13 4 -336 314 -499 478
-142 143 -233 242 -298 326 -39 49 -40 52 -34 110 4 39 15 73 33 101 24 39 34
44 109 67 142 43 529 108 923 156 99 12 181 24 183 25 2 2 -2 37 -8 79 -13 86
-61 234 -114 348 -35 77 -36 78 -63 67 -15 -5 -32 -14 -38 -19 -63 -51 -767
-410 -919 -469 l-109 -42 -55 23 c-36 15 -66 37 -89 65 l-35 43 7 107 c12 195
55 483 130 878 19 99 34 189 33 200 -2 16 -9 20 -37 20 -20 0 -88 3 -151 7
-63 3 -150 3 -192 -2z m118 -1146 c0 -13 -2 -22 -5 -19 -3 3 -6 17 -7 31 0 13
2 22 5 19 3 -3 6 -17 7 -31z m350 -259 c-1 -13 -4 -27 -7 -30 -5 -4 -4 41 0
53 4 10 8 -2 7 -23z m-651 -14 c3 -5 2 -12 -3 -15 -5 -3 -9 1 -9 9 0 17 3 19
12 6z m712 -13 c-3 -8 -6 -5 -6 6 -1 11 2 17 5 13 3 -3 4 -12 1 -19z m-582
-367 c3 -5 2 -12 -3 -15 -5 -3 -9 1 -9 9 0 17 3 19 12 6z m-49 -26 c-1 -13 -4
-27 -7 -30 -5 -4 -4 41 0 53 4 10 8 -2 7 -23z m431 10 c0 -8 -4 -12 -9 -9 -5
3 -6 10 -3 15 9 13 12 11 12 -6z m-382 -24 c3 -5 2 -12 -3 -15 -5 -3 -9 1 -9
9 0 17 3 19 12 6z m450 0 c3 -5 2 -12 -3 -15 -5 -3 -9 1 -9 9 0 17 3 19 12 6z"/>
<path d="M1864 3929 c-66 -33 -133 -72 -151 -85 -17 -13 -35 -24 -39 -24 -3 0
-21 -12 -38 -27 -18 -16 -47 -39 -65 -53 -73 -54 -201 -194 -201 -218 0 -31
395 -410 512 -490 86 -60 144 -92 156 -87 7 3 10 1 7 -4 -3 -5 5 -13 17 -17
13 -4 24 -5 25 -3 1 2 8 -3 15 -12 7 -9 22 -19 33 -21 19 -5 21 0 20 50 0 31
-5 57 -11 59 -7 2 -10 -12 -9 -36 1 -22 -1 -38 -5 -36 -11 7 -5 78 7 82 18 6
28 -18 29 -69 2 -66 3 -70 13 -64 5 4 11 2 13 -3 1 -5 12 -11 23 -13 11 -1 26
-9 34 -16 8 -8 25 -12 38 -9 12 2 23 1 23 -3 0 -6 44 -30 55 -30 3 0 5 36 5
80 0 50 -4 80 -11 80 -5 0 -8 -4 -4 -9 3 -5 2 -12 -3 -15 -4 -2 -8 6 -8 19 0
16 4 21 15 17 11 -4 13 -1 8 12 -4 10 -7 22 -7 27 0 6 -4 8 -8 5 -5 -3 -9 1
-9 9 0 8 4 12 9 9 4 -3 8 2 8 11 0 9 -4 14 -8 11 -5 -3 -9 1 -9 9 0 8 4 12 9
9 13 -8 9 21 -4 35 -15 14 -18 53 -5 62 4 3 -1 33 -13 65 -11 32 -23 70 -25
84 -3 14 -8 39 -11 55 -4 17 -13 39 -20 50 -8 11 -14 27 -14 36 0 9 -7 22 -15
29 -8 7 -13 16 -10 20 2 4 -9 33 -25 65 -17 32 -30 65 -30 72 0 7 -5 13 -11
13 -5 0 -8 4 -5 9 3 5 -2 19 -12 32 -10 13 -44 77 -77 142 -32 64 -66 124 -75
132 -16 14 -28 10 -136 -46z m452 -784 c-1 -13 -4 -27 -7 -30 -5 -4 -4 41 0
53 4 10 8 -2 7 -23z m-29 -110 c0 -8 -4 -12 -9 -9 -5 3 -6 10 -3 15 9 13 12
11 12 -6z m68 -160 c1 -19 -1 -32 -4 -29 -3 3 -6 21 -6 39 -1 19 1 32 4 29 3
-3 6 -21 6 -39z m-68 -20 c0 -8 -4 -12 -9 -9 -5 3 -6 10 -3 15 9 13 12 11 12
-6z"/>
<path d="M3072 3947 c-258 -468 -320 -648 -341 -992 -5 -77 -7 -142 -5 -144 6
-7 124 43 124 52 0 4 4 5 10 2 5 -3 26 3 47 14 21 10 41 20 45 21 4 1 17 4 28
7 11 3 20 12 20 19 0 8 6 13 12 11 8 -1 13 10 12 30 0 18 3 30 7 27 4 -2 6
-13 4 -24 -2 -11 0 -22 6 -25 5 -4 9 -1 9 5 0 6 4 9 9 6 16 -10 178 95 276
178 86 73 205 192 205 205 0 6 5 11 11 11 18 0 179 172 179 191 0 36 -205 223
-340 310 -108 69 -248 139 -279 139 -9 0 -26 -19 -39 -43z m-257 -796 c3 -5 2
-12 -3 -15 -5 -3 -9 1 -9 9 0 17 3 19 12 6z m0 -40 c3 -5 2 -12 -3 -15 -5 -3
-9 1 -9 9 0 17 3 19 12 6z m-29 -35 c0 -19 -3 -33 -7 -31 -7 5 -4 65 4 65 1 0
3 -15 3 -34z m64 24 c0 -5 -2 -10 -4 -10 -3 0 -8 5 -11 10 -3 6 -1 10 4 10 6
0 11 -4 11 -10z m-35 -133 c0 -58 -2 -108 -5 -111 -3 -2 -5 46 -5 109 0 62 2
112 5 110 3 -2 5 -51 5 -108z m70 -21 c0 -35 -3 -67 -5 -70 -3 -2 -5 28 -5 69
0 40 2 72 5 70 3 -2 6 -33 5 -69z m58 57 c3 -5 -5 -8 -18 -8 -13 0 -21 3 -18
8 2 4 10 7 18 7 8 0 16 -3 18 -7z"/>
<path d="M3256 2571 c-3 -4 -20 -6 -37 -3 -27 4 -31 2 -26 -12 4 -10 3 -15 -3
-11 -20 12 -62 16 -55 5 4 -7 -3 -10 -21 -8 l-29 3 0 -72 c0 -39 -2 -74 -6
-77 -3 -3 -5 26 -4 65 1 73 -10 94 -38 71 -6 -5 -25 -10 -41 -10 -15 0 -32 -5
-36 -12 -4 -7 -12 -10 -18 -6 -6 3 -13 2 -17 -4 -4 -6 -10 -8 -15 -5 -14 9
-60 -6 -60 -20 0 -16 40 -61 51 -58 5 2 8 -3 6 -10 -1 -6 4 -11 11 -9 8 1 11
-2 8 -7 -8 -12 70 -105 165 -197 77 -75 181 -153 286 -217 110 -66 445 -228
466 -225 50 7 193 341 218 511 29 193 30 212 14 223 -16 12 -109 31 -175 37
-20 2 -41 6 -47 10 -6 4 -40 9 -75 11 -34 3 -70 7 -78 10 -60 21 -433 35 -444
17z m-141 -85 c0 -25 -3 -47 -5 -50 -3 -3 -5 19 -5 49 0 29 2 52 5 50 3 -2 6
-24 5 -49z m-60 -100 c0 -79 -2 -143 -5 -141 -4 3 -5 274 -1 283 5 10 6 -16 6
-142z m-50 29 c0 -52 -2 -92 -5 -89 -2 3 -5 48 -5 99 0 52 2 92 5 89 2 -3 5
-48 5 -99z m-48 60 c0 -8 -4 -12 -9 -9 -5 3 -6 10 -3 15 9 13 12 11 12 -6z
m-1 -79 c0 -19 -3 -33 -7 -31 -7 5 -4 65 4 65 1 0 3 -15 3 -34z m129 -25 c3
-5 2 -12 -3 -15 -5 -3 -9 1 -9 9 0 17 3 19 12 6z m1 -56 c1 -8 -1 -17 -5 -19
-4 -3 -7 6 -7 19 0 25 8 25 12 0z m29 6 c3 -5 2 -12 -3 -15 -5 -3 -9 1 -9 9 0
17 3 19 12 6z m-29 -66 c1 -8 -1 -17 -5 -19 -4 -3 -7 6 -7 19 0 25 8 25 12 0z
m11 -40 c0 -8 -4 -12 -9 -9 -5 3 -6 10 -3 15 9 13 12 11 12 -6z"/>
<path d="M1525 2561 c-89 -9 -335 -53 -433 -78 l-64 -16 6 -66 c6 -73 24 -181
40 -246 3 -11 18 -57 34 -102 17 -45 27 -84 24 -87 -3 -3 0 -6 6 -6 9 0 22
-25 28 -56 1 -6 13 -29 27 -51 14 -23 23 -44 20 -47 -4 -3 0 -6 7 -6 7 0 11
-3 7 -6 -3 -3 -1 -11 4 -18 5 -6 16 -20 23 -31 13 -18 17 -19 53 -6 61 22 372
175 448 222 164 99 311 227 426 369 46 56 89 120 89 131 0 11 -150 56 -264 80
-104 22 -356 32 -481 20z"/>
<path d="M4455 2390 c3 -5 8 -10 11 -10 2 0 4 5 4 10 0 6 -5 10 -11 10 -5 0
-7 -4 -4 -10z"/>
<path d="M2511 2193 c-118 -158 -210 -364 -262 -586 -26 -114 -69 -421 -69
-503 0 -33 12 -40 95 -50 39 -5 80 -12 80 -14 0 0 27 -3 60 -5 115 -8 240 -6
305 4 36 5 98 14 139 20 110 17 104 2 81 196 -49 418 -127 656 -296 905 -53
79 -69 100 -77 100 -3 0 -28 -30 -56 -67z"/>
<path d="M3741 1407 c2 -1 15 -11 29 -22 l25 -20 -19 23 c-11 12 -24 22 -29
22 -6 0 -8 -1 -6 -3z"/>
</g>
</svg>
