<?xml version="1.0" encoding="iso-8859-1"?>
<!-- Uploaded to: SVG Repo, www.svgrepo.com, Generator: SVG Repo Mixer Tools -->
<!DOCTYPE svg PUBLIC "-//W3C//DTD SVG 1.1//EN" "http://www.w3.org/Graphics/SVG/1.1/DTD/svg11.dtd">
<svg fill="#FFFFFF" version="1.1" id="Capa_1" xmlns="http://www.w3.org/2000/svg" xmlns:xlink="http://www.w3.org/1999/xlink" 
	 width="800px" height="800px" viewBox="0 0 381.592 381.592"
	 xml:space="preserve">
<g>
	<path d="M325.707,55.884c-36.035-36.036-83.949-55.883-134.91-55.883c-50.965,0-98.877,19.847-134.914,55.883
		C19.848,91.921,0,139.833,0,190.796s19.848,98.876,55.883,134.913c36.037,36.035,83.949,55.882,134.914,55.882
		c50.961,0,98.875-19.847,134.91-55.882c36.037-36.036,55.885-83.95,55.885-134.913S361.744,91.921,325.707,55.884z M317.91,135.754
		c1.975,0.805,3.526,2.388,4.297,4.375c2.178,5.634,4.008,11.463,5.438,17.328c0.5,2.043,0.146,4.203-0.981,5.979
		c-1.125,1.777-2.926,3.02-4.986,3.442l-74.967,15.349c-0.523,0.106-1.045,0.158-1.562,0.158c-3.29,0-6.305-2.109-7.358-5.352
		c-1.218-3.748,0.573-7.813,4.162-9.443l69.83-31.718C313.723,134.991,315.939,134.949,317.91,135.754z M235.756,118.963
		l5.492-48.738c0.281-2.5,1.762-4.708,3.965-5.919c2.207-1.212,4.863-1.276,7.123-0.174c15.441,7.527,29.254,17.712,41.059,30.271
		c1.711,1.82,2.439,4.353,1.955,6.803c-0.483,2.452-2.119,4.518-4.395,5.551l-44.301,20.123c-1.023,0.465-2.117,0.693-3.203,0.693
		c-1.609,0-3.205-0.501-4.551-1.479C236.645,124.456,235.443,121.732,235.756,118.963z M176.16,53.011
		c1.359-1.624,3.324-2.62,5.436-2.758c6.113-0.4,12.287-0.4,18.4,0c2.111,0.138,4.076,1.134,5.436,2.758
		c1.357,1.624,1.992,3.732,1.754,5.836l-8.695,77.167c-0.44,3.917-3.752,6.877-7.692,6.877c-3.943,0-7.254-2.96-7.695-6.877
		l-8.697-77.167C174.168,56.744,174.803,54.635,176.16,53.011z M190.797,167.474c12.879,0,23.322,10.442,23.322,23.322
		s-10.443,23.322-23.322,23.322c-12.881,0-23.322-10.442-23.322-23.322S177.916,167.474,190.797,167.474z M88.195,94.401
		C100,81.842,113.814,71.657,129.256,64.13c2.258-1.103,4.918-1.038,7.121,0.175c2.205,1.212,3.686,3.418,3.967,5.918l5.49,48.739
		c0.313,2.769-0.887,5.493-3.141,7.131c-1.348,0.978-2.945,1.479-4.555,1.479c-1.086,0-2.178-0.229-3.201-0.693l-44.303-20.123
		c-2.273-1.034-3.91-3.1-4.395-5.551C85.758,98.755,86.484,96.221,88.195,94.401z M53.945,157.457
		c1.43-5.863,3.26-11.693,5.441-17.329c0.768-1.987,2.322-3.569,4.295-4.375c1.971-0.805,4.188-0.763,6.129,0.12l69.824,31.716
		c3.588,1.63,5.381,5.695,4.162,9.443c-1.053,3.241-4.066,5.352-7.359,5.352c-0.516,0-1.037-0.051-1.559-0.158l-74.963-15.348
		c-2.061-0.422-3.861-1.664-4.988-3.441C53.803,161.66,53.447,159.502,53.945,157.457z M73.998,262.299
		c-0.307,0-0.615-0.019-0.926-0.055c-2.48-0.298-4.664-1.777-5.867-3.97c-7.967-14.554-13.252-30.248-15.703-46.651
		c-0.375-2.5,0.496-5.025,2.33-6.765c1.836-1.739,4.408-2.475,6.881-1.967l46.438,9.508c2.73,0.559,4.951,2.541,5.811,5.192
		c0.861,2.651,0.232,5.562-1.648,7.617l-31.598,34.569C78.238,261.396,76.158,262.299,73.998,262.299z M122.166,311.134
		c-0.625,0.157-1.262,0.235-1.895,0.235c-1.443,0-2.873-0.404-4.117-1.185c-4.988-3.132-9.834-6.615-14.402-10.354
		c-1.646-1.348-2.666-3.312-2.818-5.434c-0.154-2.123,0.572-4.213,2.006-5.785l50.543-55.295c2.66-2.907,7.08-3.356,10.268-1.039
		c3.189,2.315,4.129,6.658,2.184,10.086l-36.928,65.08C125.963,309.285,124.215,310.616,122.166,311.134z M220.527,325.256
		c-1.078,2.278-3.197,3.892-5.683,4.319c-7.889,1.367-15.979,2.059-24.051,2.059s-16.162-0.691-24.051-2.059
		c-2.482-0.43-4.602-2.041-5.68-4.319c-1.076-2.278-0.979-4.938,0.266-7.132l22.73-40.061c1.375-2.424,3.947-3.922,6.736-3.922
		c2.787,0,5.357,1.498,6.734,3.922l22.729,40.061C221.506,320.317,221.604,322.978,220.527,325.256z M282.658,294.399
		c-0.154,2.121-1.175,4.086-2.82,5.434c-4.57,3.74-9.416,7.222-14.402,10.352c-1.243,0.781-2.674,1.187-4.114,1.187
		c-0.636,0-1.271-0.078-1.896-0.236c-2.049-0.516-3.799-1.849-4.842-3.687l-36.926-65.08c-1.945-3.428-1.006-7.771,2.184-10.086
		c3.189-2.318,7.607-1.868,10.268,1.039l50.542,55.295C282.086,290.187,282.812,292.276,282.658,294.399z M314.385,258.274
		c-1.199,2.193-3.385,3.672-5.867,3.971c-0.309,0.037-0.616,0.055-0.926,0.055c-2.16,0-4.238-0.904-5.715-2.52l-31.598-34.569
		c-1.882-2.058-2.513-4.968-1.65-7.618c0.861-2.65,3.082-4.634,5.813-5.193l46.436-9.506c2.479-0.508,5.045,0.228,6.881,1.967
		c1.836,1.738,2.707,4.264,2.332,6.765C327.637,228.026,322.354,243.722,314.385,258.274z"/>
</g>
</svg>