<?xml version="1.0" standalone="no"?>
<!DOCTYPE svg PUBLIC "-//W3C//DTD SVG 20010904//EN"
 "http://www.w3.org/TR/2001/REC-SVG-20010904/DTD/svg10.dtd">
<svg version="1.0" xmlns="http://www.w3.org/2000/svg"
 width="78.000000pt" height="78.000000pt" viewBox="0 0 78.000000 78.000000"
 preserveAspectRatio="xMidYMid meet">
<metadata>
Created by potrace 1.11, written by Peter Selinger 2001-2013
</metadata>
<g transform="translate(0.000000,78.000000) scale(0.100000,-0.100000)"
fill="#000000" stroke="none">
<path d="M115 698 c0 -55 2 -64 20 -68 28 -8 29 -80 1 -96 -13 -8 -20 -23 -20
-45 -1 -29 -4 -34 -26 -34 l-25 0 0 -115 0 -115 25 0 c22 0 25 -4 25 -35 0
-29 4 -36 23 -38 17 -3 21 -9 18 -28 -4 -19 0 -25 19 -30 15 -4 22 -11 18 -20
-5 -14 0 -16 64 -17 18 0 30 -3 28 -7 -2 -3 0 -12 5 -20 6 -10 32 -13 100 -13
91 1 105 4 105 26 0 7 17 13 40 13 58 3 58 3 51 19 -5 13 5 20 27 16 4 -1 10
12 13 29 4 16 12 31 18 31 6 1 18 2 26 3 10 1 15 12 15 35 0 24 5 36 19 40 16
6 18 18 18 92 -1 140 0 137 -19 135 -14 -1 -18 7 -18 29 -1 40 -11 54 -35 48
-20 -5 -22 -2 -22 42 0 49 2 57 15 52 29 -10 42 10 42 70 -1 55 -2 58 -27 61
-19 2 -27 -2 -31 -18 -3 -11 -11 -19 -19 -18 -8 2 -14 -8 -16 -24 -2 -16 -11
-30 -22 -33 -10 -3 -20 -14 -23 -24 -6 -24 -57 -17 -57 8 0 15 -12 17 -92 15
-121 -2 -118 -2 -112 -18 3 -8 -3 -16 -15 -19 -16 -4 -21 0 -21 14 0 10 -4 20
-10 20 -5 1 -14 3 -20 4 -5 1 -14 3 -20 4 -5 0 -10 14 -10 30 0 21 -5 28 -17
27 -10 0 -18 6 -18 14 0 8 -9 16 -20 18 -18 2 -20 -3 -20 -60z"/>
</g>
</svg>
